<?xml version="1.0" standalone="no"?>
<!DOCTYPE svg PUBLIC "-//W3C//DTD SVG 20010904//EN"
 "http://www.w3.org/TR/2001/REC-SVG-20010904/DTD/svg10.dtd">
<svg version="1.0" xmlns="http://www.w3.org/2000/svg"
 width="260.000000pt" height="260.000000pt" viewBox="0 0 260.000000 260.000000"
 preserveAspectRatio="xMidYMid meet">
<metadata>
Created by potrace 1.11, written by Peter Selinger 2001-2013
</metadata>
<g transform="translate(0.000000,260.000000) scale(0.100000,-0.100000)"
fill="#000000" stroke="none">
<path d="M205 2486 c-59 -27 -77 -46 -104 -106 -20 -44 -21 -61 -21 -1085 0
-1024 1 -1041 21 -1085 27 -60 45 -79 104 -106 l50 -24 1040 0 1040 0 50 24
c59 27 77 46 104 106 20 44 21 61 21 1085 l0 1040 -24 50 c-27 59 -46 77 -106
104 -44 20 -61 21 -1085 21 l-1040 0 -50 -24z m1209 -456 c43 -11 101 -32 129
-47 79 -42 176 -145 219 -233 54 -110 68 -176 75 -342 l6 -148 -497 0 -496 0
0 -37 c1 -102 56 -262 115 -331 39 -46 105 -90 173 -113 129 -45 352 -31 544
35 l98 33 0 -98 0 -98 -57 -21 c-164 -62 -388 -86 -550 -60 -268 42 -451 209
-525 478 -31 112 -31 391 0 507 69 255 237 433 455 480 93 20 221 18 311 -5z"/>
<path d="M1140 1855 c-148 -42 -249 -172 -278 -359 l-9 -56 375 0 375 0 -6 78
c-15 212 -132 338 -323 348 -52 3 -98 -1 -134 -11z"/>
</g>
</svg>
